{"asset":{"version":"2.0","generator":"Blockbench 5.0.0 glTF exporter"},"scenes":[{"nodes":[23],"name":"blockbench_export"}],"scene":0,"nodes":[{"name":"knife"},{"translation":[0.3125,0,-0.0625],"name":"hand","children":[0]},{"translation":[0.18125000000000002,0.0625,0.0625],"name":"lower_arm","children":[1]},{"translation":[0.1875,0.5625,0.0625],"name":"upper_arm","children":[2]},{"translation":[0,-0.25,0],"name":"right_arm","children":[3]},{"name":"knife2"},{"translation":[-0.3125,0,-0.0625],"name":"hand2","children":[5]},{"translation":[-0.18125000000000002,0.0625,0.0625],"name":"lower_arm2","children":[6]},{"translation":[-0.1875,0.5625,0.0625],"name":"upper_arm2","children":[7]},{"translation":[0,-0.25,0],"name":"left_arm","children":[8]},{"translation":[0,0.125,0],"name":"head"},{"translation":[0,0.375,0],"name":"neck","children":[10]},{"translation":[0,0.25,0],"name":"chest","children":[4,9,11]},{"translation":[0,-0.1875,0.1875],"name":"foot"},{"translation":[0.0625,-0.1875,-0.14375],"name":"lower_leg","children":[13]},{"translation":[0.125,0.1875,0.0625],"name":"upper_leg","children":[14]},{"name":"right_leg","children":[15]},{"translation":[0,-0.1875,0.1875],"name":"foot2"},{"translation":[-0.0625,-0.1875,-0.14375],"name":"lower_leg2","children":[17]},{"translation":[-0.125,0.1875,0.0625],"name":"upper_leg2","children":[18]},{"name":"left_leg","children":[19]},{"translation":[0,0.3125,0],"name":"hip","children":[12,16,20]},{"name":"root","children":[21]},{"name":"root","mesh":0,"children":[22],"skin":0}],"bufferViews":[{"buffer":0,"byteOffset":0,"byteLength":6912,"target":34962,"byteStride":12},{"buffer":0,"byteOffset":6912,"byteLength":6912,"target":34962,"byteStride":12},{"buffer":0,"byteOffset":13824,"byteLength":4608,"target":34962,"byteStride":8},{"buffer":0,"byteOffset":18432,"byteLength":4608,"target":34962,"byteStride":8},{"buffer":0,"byteOffset":23040,"byteLength":9216,"target":34962,"byteStride":16},{"buffer":0,"byteOffset":32256,"byteLength":1728,"target":34963},{"buffer":0,"byteOffset":33984,"byteLength":1472},{"buffer":0,"byteOffset":35456,"byteLength":156},{"buffer":0,"byteOffset":35612,"byteLength":468},{"buffer":0,"byteOffset":36080,"byteLength":156},{"buffer":0,"byteOffset":36236,"byteLength":624},{"buffer":0,"byteOffset":36860,"byteLength":156},{"buffer":0,"byteOffset":37016,"byteLength":624},{"buffer":0,"byteOffset":37640,"byteLength":4},{"buffer":0,"byteOffset":37644,"byteLength":16},{"buffer":0,"byteOffset":37660,"byteLength":156},{"buffer":0,"byteOffset":37816,"byteLength":624},{"buffer":0,"byteOffset":38440,"byteLength":156},{"buffer":0,"byteOffset":38596,"byteLength":624},{"buffer":0,"byteOffset":39220,"byteLength":8},{"buffer":0,"byteOffset":39228,"byteLength":32},{"buffer":0,"byteOffset":39260,"byteLength":156},{"buffer":0,"byteOffset":39416,"byteLength":624},{"buffer":0,"byteOffset":40040,"byteLength":156},{"buffer":0,"byteOffset":40196,"byteLength":624},{"buffer":0,"byteOffset":40820,"byteLength":8},{"buffer":0,"byteOffset":40828,"byteLength":32},{"buffer":0,"byteOffset":40860,"byteLength":156},{"buffer":0,"byteOffset":41016,"byteLength":624},{"buffer":0,"byteOffset":41640,"byteLength":4},{"buffer":0,"byteOffset":41644,"byteLength":16},{"buffer":0,"byteOffset":41660,"byteLength":4},{"buffer":0,"byteOffset":41664,"byteLength":16},{"buffer":0,"byteOffset":41680,"byteLength":8},{"buffer":0,"byteOffset":41688,"byteLength":32},{"buffer":0,"byteOffset":41720,"byteLength":12},{"buffer":0,"byteOffset":41732,"byteLength":48},{"buffer":0,"byteOffset":41780,"byteLength":20},{"buffer":0,"byteOffset":41800,"byteLength":80},{"buffer":0,"byteOffset":41880,"byteLength":12},{"buffer":0,"byteOffset":41892,"byteLength":48},{"buffer":0,"byteOffset":41940,"byteLength":8},{"buffer":0,"byteOffset":41948,"byteLength":32},{"buffer":0,"byteOffset":41980,"byteLength":12},{"buffer":0,"byteOffset":41992,"byteLength":48},{"buffer":0,"byteOffset":42040,"byteLength":12},{"buffer":0,"byteOffset":42052,"byteLength":48},{"buffer":0,"byteOffset":42100,"byteLength":12},{"buffer":0,"byteOffset":42112,"byteLength":48},{"buffer":0,"byteOffset":42160,"byteLength":12},{"buffer":0,"byteOffset":42172,"byteLength":48},{"buffer":0,"byteOffset":42220,"byteLength":12},{"buffer":0,"byteOffset":42232,"byteLength":48},{"buffer":0,"byteOffset":42280,"byteLength":8},{"buffer":0,"byteOffset":42288,"byteLength":32},{"buffer":0,"byteOffset":42320,"byteLength":4},{"buffer":0,"byteOffset":42324,"byteLength":12},{"buffer":0,"byteOffset":42336,"byteLength":24},{"buffer":0,"byteOffset":42360,"byteLength":96},{"buffer":0,"byteOffset":42456,"byteLength":36},{"buffer":0,"byteOffset":42492,"byteLength":108},{"buffer":0,"byteOffset":42600,"byteLength":64},{"buffer":0,"byteOffset":42664,"byteLength":256},{"buffer":0,"byteOffset":42920,"byteLength":64},{"buffer":0,"byteOffset":42984,"byteLength":256},{"buffer":0,"byteOffset":43240,"byteLength":24},{"buffer":0,"byteOffset":43264,"byteLength":96},{"buffer":0,"byteOffset":43360,"byteLength":8},{"buffer":0,"byteOffset":43368,"byteLength":32},{"buffer":0,"byteOffset":43400,"byteLength":64},{"buffer":0,"byteOffset":43464,"byteLength":256},{"buffer":0,"byteOffset":43720,"byteLength":40},{"buffer":0,"byteOffset":43760,"byteLength":160},{"buffer":0,"byteOffset":43920,"byteLength":8},{"buffer":0,"byteOffset":43928,"byteLength":32},{"buffer":0,"byteOffset":43960,"byteLength":64},{"buffer":0,"byteOffset":44024,"byteLength":256},{"buffer":0,"byteOffset":44280,"byteLength":20},{"buffer":0,"byteOffset":44300,"byteLength":80},{"buffer":0,"byteOffset":44380,"byteLength":64},{"buffer":0,"byteOffset":44444,"byteLength":256},{"buffer":0,"byteOffset":44700,"byteLength":24},{"buffer":0,"byteOffset":44724,"byteLength":96},{"buffer":0,"byteOffset":44820,"byteLength":60},{"buffer":0,"byteOffset":44880,"byteLength":240},{"buffer":0,"byteOffset":45120,"byteLength":64},{"buffer":0,"byteOffset":45184,"byteLength":256},{"buffer":0,"byteOffset":45440,"byteLength":24},{"buffer":0,"byteOffset":45464,"byteLength":96},{"buffer":0,"byteOffset":45560,"byteLength":24},{"buffer":0,"byteOffset":45584,"byteLength":96},{"buffer":0,"byteOffset":45680,"byteLength":4},{"buffer":0,"byteOffset":45684,"byteLength":12},{"buffer":0,"byteOffset":45696,"byteLength":4},{"buffer":0,"byteOffset":45700,"byteLength":16},{"buffer":0,"byteOffset":45716,"byteLength":4},{"buffer":0,"byteOffset":45720,"byteLength":12},{"buffer":0,"byteOffset":45732,"byteLength":4},{"buffer":0,"byteOffset":45736,"byteLength":16},{"buffer":0,"byteOffset":45752,"byteLength":4},{"buffer":0,"byteOffset":45756,"byteLength":16},{"buffer":0,"byteOffset":45772,"byteLength":4},{"buffer":0,"byteOffset":45776,"byteLength":16},{"buffer":0,"byteOffset":45792,"byteLength":4},{"buffer":0,"byteOffset":45796,"byteLength":16},{"buffer":0,"byteOffset":45812,"byteLength":40},{"buffer":0,"byteOffset":45852,"byteLength":160},{"buffer":0,"byteOffset":46012,"byteLength":40},{"buffer":0,"byteOffset":46052,"byteLength":160},{"buffer":0,"byteOffset":46212,"byteLength":40},{"buffer":0,"byteOffset":46252,"byteLength":160},{"buffer":0,"byteOffset":46412,"byteLength":4},{"buffer":0,"byteOffset":46416,"byteLength":16},{"buffer":0,"byteOffset":46432,"byteLength":4},{"buffer":0,"byteOffset":46436,"byteLength":16},{"buffer":0,"byteOffset":46452,"byteLength":4},{"buffer":0,"byteOffset":46456,"byteLength":16},{"buffer":0,"byteOffset":46472,"byteLength":4},{"buffer":0,"byteOffset":46476,"byteLength":16},{"buffer":0,"byteOffset":46492,"byteLength":4},{"buffer":0,"byteOffset":46496,"byteLength":16},{"buffer":0,"byteOffset":46512,"byteLength":4},{"buffer":0,"byteOffset":46516,"byteLength":16},{"buffer":0,"byteOffset":46532,"byteLength":4},{"buffer":0,"byteOffset":46536,"byteLength":16},{"buffer":0,"byteOffset":46552,"byteLength":4},{"buffer":0,"byteOffset":46556,"byteLength":16},{"buffer":0,"byteOffset":46572,"byteLength":4},{"buffer":0,"byteOffset":46576,"byteLength":12},{"buffer":0,"byteOffset":46588,"byteLength":4},{"buffer":0,"byteOffset":46592,"byteLength":16},{"buffer":0,"byteOffset":46608,"byteLength":4},{"buffer":0,"byteOffset":46612,"byteLength":12},{"buffer":0,"byteOffset":46624,"byteLength":4},{"buffer":0,"byteOffset":46628,"byteLength":16},{"buffer":0,"byteOffset":46644,"byteLength":40},{"buffer":0,"byteOffset":46684,"byteLength":160},{"buffer":0,"byteOffset":46844,"byteLength":40},{"buffer":0,"byteOffset":46884,"byteLength":160},{"buffer":0,"byteOffset":47044,"byteLength":40},{"buffer":0,"byteOffset":47084,"byteLength":160},{"buffer":0,"byteOffset":47244,"byteLength":4},{"buffer":0,"byteOffset":47248,"byteLength":16},{"buffer":0,"byteOffset":47264,"byteLength":4},{"buffer":0,"byteOffset":47268,"byteLength":16},{"buffer":0,"byteOffset":47284,"byteLength":4},{"buffer":0,"byteOffset":47288,"byteLength":16},{"buffer":0,"byteOffset":47304,"byteLength":4},{"buffer":0,"byteOffset":47308,"byteLength":16},{"buffer":0,"byteOffset":47324,"byteLength":4},{"buffer":0,"byteOffset":47328,"byteLength":16},{"buffer":0,"byteOffset":47344,"byteLength":4},{"buffer":0,"byteOffset":47348,"byteLength":16},{"buffer":0,"byteOffset":47364,"byteLength":4},{"buffer":0,"byteOffset":47368,"byteLength":16},{"buffer":0,"byteOffset":47384,"byteLength":4},{"buffer":0,"byteOffset":47388,"byteLength":16},{"buffer":0,"byteOffset":47404,"byteLength":4},{"buffer":0,"byteOffset":47408,"byteLength":16},{"buffer":0,"byteOffset":47424,"byteLength":4},{"buffer":0,"byteOffset":47428,"byteLength":16},{"buffer":0,"byteOffset":47444,"byteLength":4},{"buffer":0,"byteOffset":47448,"byteLength":16}],"buffers":[{"byteLength":47464,"uri":"data:application/octet-stream;base64,"}],"accessors":[{"bufferView":0,"componentType":5126,"count":576,"max":[0.8187500238418579,1.375,0.1875],"min":[-0.8187500238418579,0,-0.543749988079071],"type":"VEC3"},{"bufferView":1,"componentType":5126,"count":576,"max":[1,1,1],"min":[-1,-1,-1],"type":"VEC3"},{"bufferView":2,"componentType":5126,"count":576,"max":[0.78125,0.765625],"min":[0,0],"type":"VEC2"},{"bufferView":3,"componentType":5123,"count":576,"max":[0,22,0,0],"min":[0,1,0,0],"type":"VEC4"},{"bufferView":4,"componentType":5126,"count":576,"max":[0,1,0,0],"min":[0,1,0,0],"type":"VEC4"},{"bufferView":5,"componentType":5123,"count":864,"max":[575],"min":[0],"type":"SCALAR"},{"bufferView":6,"componentType":5126,"count":23,"max":[1,0,0,0,0,1,0,0,0,0,1,0,0.6812499761581421,0,0.08124999701976776,1],"min":[1,0,0,0,0,1,0,0,0,0,1,0,-0.6812499761581421,-1.0625,-0.125,1],"type":"MAT4"},{"bufferView":7,"componentType":5126,"count":39,"max":[2],"min":[0],"type":"SCALAR"},{"bufferView":8,"componentType":5126,"count":39,"max":[0,-0.08124999701976776,0],"min":[0,-0.10000000149011612,-0.0078125],"type":"VEC3"},{"bufferView":9,"componentType":5126,"count":39,"max":[2],"min":[0],"type":"SCALAR"},{"bufferView":10,"componentType":5126,"count":39,"max":[0.13052618503570557,0,0,0.9978589415550232],"min":[0.06540312618017197,0,0,0.9914448857307434],"type":"VEC4"},{"bufferView":11,"componentType":5126,"count":39,"max":[2],"min":[0],"type":"SCALAR"},{"bufferView":12,"componentType":5126,"count":39,"max":[-0.06526309251785278,-0.10692079365253448,-0.4957224428653717,0.8586164116859436],"min":[-0.07486674934625626,-0.11303900182247162,-0.5686694383621216,0.8121441006660461],"type":"VEC4"},{"bufferView":13,"componentType":5126,"count":1,"max":[0],"min":[0],"type":"SCALAR"},{"bufferView":14,"componentType":5126,"count":1,"max":[0,0.258819043636322,0,0.9659258127212524],"min":[0,0.258819043636322,0,0.9659258127212524],"type":"VEC4"},{"bufferView":15,"componentType":5126,"count":39,"max":[2],"min":[0],"type":"SCALAR"},{"bufferView":16,"componentType":5126,"count":39,"max":[0.21130913496017456,-0.21130913496017456,0.04684610664844513,0.9614638686180115],"min":[0.16953201591968536,-0.21315141022205353,0.037584345787763596,0.9531539082527161],"type":"VEC4"},{"bufferView":17,"componentType":5126,"count":39,"max":[2],"min":[0],"type":"SCALAR"},{"bufferView":18,"componentType":5126,"count":39,"max":[-0.30070579051971436,0,0,0.9537169337272644],"min":[-0.3420201539993286,0,0,0.9396926164627075],"type":"VEC4"},{"bufferView":19,"componentType":5126,"count":2,"max":[2],"min":[0],"type":"SCALAR"},{"bufferView":20,"componentType":5126,"count":2,"max":[0.13052618503570557,0,0,0.9914448857307434],"min":[0.13052618503570557,0,0,0.9914448857307434],"type":"VEC4"},{"bufferView":21,"componentType":5126,"count":39,"max":[2],"min":[0],"type":"SCALAR"},{"bufferView":22,"componentType":5126,"count":39,"max":[0.21130913496017456,0.21315141022205353,-0.037584345787763596,0.9614638686180115],"min":[0.16953201591968536,0.21130913496017456,-0.04684610664844513,0.9531539082527161],"type":"VEC4"},{"bufferView":23,"componentType":5126,"count":39,"max":[2],"min":[0],"type":"SCALAR"},{"bufferView":24,"componentType":5126,"count":39,"max":[-0.30070579051971436,0,0,0.9537169337272644],"min":[-0.3420201539993286,0,0,0.9396926164627075],"type":"VEC4"},{"bufferView":25,"componentType":5126,"count":2,"max":[2],"min":[0],"type":"SCALAR"},{"bufferView":26,"componentType":5126,"count":2,"max":[0.13052618503570557,0,0,0.9914448857307434],"min":[0.13052618503570557,0,0,0.9914448857307434],"type":"VEC4"},{"bufferView":27,"componentType":5126,"count":39,"max":[2],"min":[0],"type":"SCALAR"},{"bufferView":28,"componentType":5126,"count":39,"max":[-0.06526309251785278,0.11303900182247162,0.5686694383621216,0.8586164116859436],"min":[-0.07486674934625626,0.10692079365253448,0.4957224428653717,0.8121441006660461],"type":"VEC4"},{"bufferView":29,"componentType":5126,"count":1,"max":[0],"min":[0],"type":"SCALAR"},{"bufferView":30,"componentType":5126,"count":1,"max":[0,-0.258819043636322,0,0.9659258127212524],"min":[0,-0.258819043636322,0,0.9659258127212524],"type":"VEC4"},{"bufferView":31,"componentType":5126,"count":1,"max":[0],"min":[0],"type":"SCALAR"},{"bufferView":32,"componentType":5126,"count":1,"max":[-0.08715574443340302,0,0,0.9961947202682495],"min":[-0.08715574443340302,0,0,0.9961947202682495],"type":"VEC4"},{"bufferView":33,"componentType":5126,"count":2,"max":[2],"min":[0],"type":"SCALAR"},{"bufferView":34,"componentType":5126,"count":2,"max":[-0.04361938685178757,0,0,0.9990482330322266],"min":[-0.04361938685178757,0,0,0.9990482330322266],"type":"VEC4"},{"bufferView":35,"componentType":5126,"count":3,"max":[1],"min":[0],"type":"SCALAR"},{"bufferView":36,"componentType":5126,"count":3,"max":[-0.06540312618017197,0,0,0.9978589415550232],"min":[-0.06540312618017197,0,0,0.9978589415550232],"type":"VEC4"},{"bufferView":37,"componentType":5126,"count":5,"max":[1],"min":[0],"type":"SCALAR"},{"bufferView":38,"componentType":5126,"count":5,"max":[0.04361938685178757,0,0,0.9990482330322266],"min":[-0.06540312618017197,0,0,0.9978589415550232],"type":"VEC4"},{"bufferView":39,"componentType":5126,"count":3,"max":[1],"min":[0],"type":"SCALAR"},{"bufferView":40,"componentType":5126,"count":3,"max":[0.15755905210971832,0.20533494651317596,-0.5880183577537537,0.7663204669952393],"min":[-0.15755905210971832,-0.20533494651317596,-0.5880183577537537,0.7663204669952393],"type":"VEC4"},{"bufferView":41,"componentType":5126,"count":2,"max":[1],"min":[0],"type":"SCALAR"},{"bufferView":42,"componentType":5126,"count":2,"max":[0,0.3420201539993286,0,0.9396926164627075],"min":[0,0.3420201539993286,0,0.9396926164627075],"type":"VEC4"},{"bufferView":43,"componentType":5126,"count":3,"max":[1],"min":[0],"type":"SCALAR"},{"bufferView":44,"componentType":5126,"count":3,"max":[0.3420201539993286,0,0,0.9396926164627075],"min":[-0.3420201539993286,0,0,0.9396926164627075],"type":"VEC4"},{"bufferView":45,"componentType":5126,"count":3,"max":[1],"min":[0],"type":"SCALAR"},{"bufferView":46,"componentType":5126,"count":3,"max":[-0.13052618503570557,0,0,0.9914448857307434],"min":[-0.13052618503570557,0,0,0.9914448857307434],"type":"VEC4"},{"bufferView":47,"componentType":5126,"count":3,"max":[1],"min":[0],"type":"SCALAR"},{"bufferView":48,"componentType":5126,"count":3,"max":[0.3420201539993286,0,0,0.9396926164627075],"min":[-0.3420201539993286,0,0,0.9396926164627075],"type":"VEC4"},{"bufferView":49,"componentType":5126,"count":3,"max":[1],"min":[0],"type":"SCALAR"},{"bufferView":50,"componentType":5126,"count":3,"max":[-0.13052618503570557,0,0,0.9914448857307434],"min":[-0.13052618503570557,0,0,0.9914448857307434],"type":"VEC4"},{"bufferView":51,"componentType":5126,"count":3,"max":[1],"min":[0],"type":"SCALAR"},{"bufferView":52,"componentType":5126,"count":3,"max":[0.15755905210971832,0.20533494651317596,0.5880183577537537,0.7663204669952393],"min":[-0.15755905210971832,-0.20533494651317596,0.5880183577537537,0.7663204669952393],"type":"VEC4"},{"bufferView":53,"componentType":5126,"count":2,"max":[1],"min":[0],"type":"SCALAR"},{"bufferView":54,"componentType":5126,"count":2,"max":[0,-0.3420201539993286,0,0.9396926164627075],"min":[0,-0.3420201539993286,0,0.9396926164627075],"type":"VEC4"},{"bufferView":55,"componentType":5126,"count":1,"max":[0],"min":[0],"type":"SCALAR"},{"bufferView":56,"componentType":5126,"count":1,"max":[0,-0.10000000149011612,0],"min":[0,-0.10000000149011612,0],"type":"VEC3"},{"bufferView":57,"componentType":5126,"count":6,"max":[1],"min":[0],"type":"SCALAR"},{"bufferView":58,"componentType":5126,"count":6,"max":[-0.13052618503570557,0,0,0.9914448857307434],"min":[-0.13052618503570557,0,0,0.9914448857307434],"type":"VEC4"},{"bufferView":59,"componentType":5126,"count":9,"max":[1],"min":[0],"type":"SCALAR"},{"bufferView":60,"componentType":5126,"count":9,"max":[0,0.25,0],"min":[0,0.25,0],"type":"VEC3"},{"bufferView":61,"componentType":5126,"count":16,"max":[1],"min":[0],"type":"SCALAR"},{"bufferView":62,"componentType":5126,"count":16,"max":[0.04361938685178757,0,0,1],"min":[0,0,0,0.9990482330322266],"type":"VEC4"},{"bufferView":63,"componentType":5126,"count":16,"max":[1],"min":[0],"type":"SCALAR"},{"bufferView":64,"componentType":5126,"count":16,"max":[-0.07486674934625626,-0.1035533919930458,-0.5327029228210449,0.8361760973930359],"min":[-0.0794593095779419,-0.10692079365253448,-0.5686694383621216,0.8121441006660461],"type":"VEC4"},{"bufferView":65,"componentType":5126,"count":6,"max":[1],"min":[0],"type":"SCALAR"},{"bufferView":66,"componentType":5126,"count":6,"max":[0,0.5,0,0.8660253882408142],"min":[0,0.5,0,0.8660253882408142],"type":"VEC4"},{"bufferView":67,"componentType":5126,"count":2,"max":[1],"min":[0],"type":"SCALAR"},{"bufferView":68,"componentType":5126,"count":2,"max":[0,0,0,1],"min":[0,0,0,1],"type":"VEC4"},{"bufferView":69,"componentType":5126,"count":16,"max":[1],"min":[0],"type":"SCALAR"},{"bufferView":70,"componentType":5126,"count":16,"max":[-0.07486674934625626,0.10692079365253448,0.5686694383621216,0.8361760973930359],"min":[-0.0794593095779419,0.1035533919930458,0.5327029228210449,0.8121441006660461],"type":"VEC4"},{"bufferView":71,"componentType":5126,"count":10,"max":[1],"min":[0],"type":"SCALAR"},{"bufferView":72,"componentType":5126,"count":10,"max":[0,-0.4809887707233429,0,0.8767267465591431],"min":[0,-0.4809887707233429,0,0.8767267465591431],"type":"VEC4"},{"bufferView":73,"componentType":5126,"count":2,"max":[1],"min":[0],"type":"SCALAR"},{"bufferView":74,"componentType":5126,"count":2,"max":[0,0,0,1],"min":[0,0,0,1],"type":"VEC4"},{"bufferView":75,"componentType":5126,"count":16,"max":[1],"min":[0],"type":"SCALAR"},{"bufferView":76,"componentType":5126,"count":16,"max":[-0.02181488461792469,0,0,0.9997619986534119],"min":[-0.06540312618017197,0,0,0.9978589415550232],"type":"VEC4"},{"bufferView":77,"componentType":5126,"count":5,"max":[1],"min":[0],"type":"SCALAR"},{"bufferView":78,"componentType":5126,"count":5,"max":[0.15212339162826538,0,0,0.9883615374565125],"min":[0.15212339162826538,0,0,0.9883615374565125],"type":"VEC4"},{"bufferView":79,"componentType":5126,"count":16,"max":[1],"min":[0],"type":"SCALAR"},{"bufferView":80,"componentType":5126,"count":16,"max":[-0.04258543252944946,-0.19198428094387054,0.0999406948685646,0.9753667712211609],"min":[-0.04258543252944946,-0.19198428094387054,0.0999406948685646,0.9753667712211609],"type":"VEC4"},{"bufferView":81,"componentType":5126,"count":6,"max":[1],"min":[0],"type":"SCALAR"},{"bufferView":82,"componentType":5126,"count":6,"max":[-0.1736481785774231,0,0,0.9848077297210693],"min":[-0.1736481785774231,0,0,0.9848077297210693],"type":"VEC4"},{"bufferView":83,"componentType":5126,"count":15,"max":[1],"min":[0],"type":"SCALAR"},{"bufferView":84,"componentType":5126,"count":15,"max":[0.3186894953250885,0.019856086000800133,-0.12900707125663757,0.9388290047645569],"min":[0.3186894953250885,0.019856086000800133,-0.12900707125663757,0.9388290047645569],"type":"VEC4"},{"bufferView":85,"componentType":5126,"count":16,"max":[1],"min":[0],"type":"SCALAR"},{"bufferView":86,"componentType":5126,"count":16,"max":[0.50257807970047,0.1458347886800766,-0.040086641907691956,0.8511995077133179],"min":[0.50257807970047,0.1458347886800766,-0.040086641907691956,0.8511995077133179],"type":"VEC4"},{"bufferView":87,"componentType":5126,"count":6,"max":[1],"min":[0],"type":"SCALAR"},{"bufferView":88,"componentType":5126,"count":6,"max":[-0.3420201539993286,0,0,0.9396926164627075],"min":[-0.3420201539993286,0,0,0.9396926164627075],"type":"VEC4"},{"bufferView":89,"componentType":5126,"count":6,"max":[1],"min":[0],"type":"SCALAR"},{"bufferView":90,"componentType":5126,"count":6,"max":[-0.04361938685178757,0,0,0.9990482330322266],"min":[-0.04361938685178757,0,0,0.9990482330322266],"type":"VEC4"},{"bufferView":91,"componentType":5126,"count":1,"max":[0],"min":[0],"type":"SCALAR"},{"bufferView":92,"componentType":5126,"count":1,"max":[0,-0.10000000149011612,0],"min":[0,-0.10000000149011612,0],"type":"VEC3"},{"bufferView":93,"componentType":5126,"count":1,"max":[0],"min":[0],"type":"SCALAR"},{"bufferView":94,"componentType":5126,"count":1,"max":[-0.13052618503570557,0,0,0.9914448857307434],"min":[-0.13052618503570557,0,0,0.9914448857307434],"type":"VEC4"},{"bufferView":95,"componentType":5126,"count":1,"max":[0],"min":[0],"type":"SCALAR"},{"bufferView":96,"componentType":5126,"count":1,"max":[0,0.25,0],"min":[0,0.25,0],"type":"VEC3"},{"bufferView":97,"componentType":5126,"count":1,"max":[0],"min":[0],"type":"SCALAR"},{"bufferView":98,"componentType":5126,"count":1,"max":[0,0,0,1],"min":[0,0,0,1],"type":"VEC4"},{"bufferView":99,"componentType":5126,"count":1,"max":[0],"min":[0],"type":"SCALAR"},{"bufferView":100,"componentType":5126,"count":1,"max":[-0.07486674934625626,-0.10692079365253448,-0.5686694383621216,0.8121441006660461],"min":[-0.07486674934625626,-0.10692079365253448,-0.5686694383621216,0.8121441006660461],"type":"VEC4"},{"bufferView":101,"componentType":5126,"count":1,"max":[0],"min":[0],"type":"SCALAR"},{"bufferView":102,"componentType":5126,"count":1,"max":[0,0.5,0,0.8660253882408142],"min":[0,0.5,0,0.8660253882408142],"type":"VEC4"},{"bufferView":103,"componentType":5126,"count":1,"max":[0],"min":[0],"type":"SCALAR"},{"bufferView":104,"componentType":5126,"count":1,"max":[0,0,0,1],"min":[0,0,0,1],"type":"VEC4"},{"bufferView":105,"componentType":5126,"count":10,"max":[0.5],"min":[0],"type":"SCALAR"},{"bufferView":106,"componentType":5126,"count":10,"max":[0.19617469608783722,0.5401044487953186,0.5686694383621216,0.8121441006660461],"min":[-0.3781852126121521,-0.28016650676727295,0.4312376081943512,0.6158711314201355],"type":"VEC4"},{"bufferView":107,"componentType":5126,"count":10,"max":[0.5],"min":[0],"type":"SCALAR"},{"bufferView":108,"componentType":5126,"count":10,"max":[0,-0.36243805289268494,0,0.9320078492164612],"min":[0,-0.537299633026123,0,0.8433914184570312],"type":"VEC4"},{"bufferView":109,"componentType":5126,"count":10,"max":[0.5],"min":[0],"type":"SCALAR"},{"bufferView":110,"componentType":5126,"count":10,"max":[0.00019221045658923686,0.4309242069721222,0.06164569407701492,1],"min":[-0.025534482672810555,0,0,0.8999178409576416],"type":"VEC4"},{"bufferView":111,"componentType":5126,"count":1,"max":[0],"min":[0],"type":"SCALAR"},{"bufferView":112,"componentType":5126,"count":1,"max":[-0.02181488461792469,0,0,0.9997619986534119],"min":[-0.02181488461792469,0,0,0.9997619986534119],"type":"VEC4"},{"bufferView":113,"componentType":5126,"count":1,"max":[0],"min":[0],"type":"SCALAR"},{"bufferView":114,"componentType":5126,"count":1,"max":[0.15212339162826538,0,0,0.9883615374565125],"min":[0.15212339162826538,0,0,0.9883615374565125],"type":"VEC4"},{"bufferView":115,"componentType":5126,"count":1,"max":[0],"min":[0],"type":"SCALAR"},{"bufferView":116,"componentType":5126,"count":1,"max":[-0.04258543252944946,-0.19198428094387054,0.0999406948685646,0.9753667712211609],"min":[-0.04258543252944946,-0.19198428094387054,0.0999406948685646,0.9753667712211609],"type":"VEC4"},{"bufferView":117,"componentType":5126,"count":1,"max":[0],"min":[0],"type":"SCALAR"},{"bufferView":118,"componentType":5126,"count":1,"max":[-0.1736481785774231,0,0,0.9848077297210693],"min":[-0.1736481785774231,0,0,0.9848077297210693],"type":"VEC4"},{"bufferView":119,"componentType":5126,"count":1,"max":[0],"min":[0],"type":"SCALAR"},{"bufferView":120,"componentType":5126,"count":1,"max":[0.3186894953250885,0.019856086000800133,-0.12900707125663757,0.9388290047645569],"min":[0.3186894953250885,0.019856086000800133,-0.12900707125663757,0.9388290047645569],"type":"VEC4"},{"bufferView":121,"componentType":5126,"count":1,"max":[0],"min":[0],"type":"SCALAR"},{"bufferView":122,"componentType":5126,"count":1,"max":[0.50257807970047,0.1458347886800766,-0.040086641907691956,0.8511995077133179],"min":[0.50257807970047,0.1458347886800766,-0.040086641907691956,0.8511995077133179],"type":"VEC4"},{"bufferView":123,"componentType":5126,"count":1,"max":[0],"min":[0],"type":"SCALAR"},{"bufferView":124,"componentType":5126,"count":1,"max":[-0.3420201539993286,0,0,0.9396926164627075],"min":[-0.3420201539993286,0,0,0.9396926164627075],"type":"VEC4"},{"bufferView":125,"componentType":5126,"count":1,"max":[0],"min":[0],"type":"SCALAR"},{"bufferView":126,"componentType":5126,"count":1,"max":[-0.04361938685178757,0,0,0.9990482330322266],"min":[-0.04361938685178757,0,0,0.9990482330322266],"type":"VEC4"},{"bufferView":127,"componentType":5126,"count":1,"max":[0],"min":[0],"type":"SCALAR"},{"bufferView":128,"componentType":5126,"count":1,"max":[0,-0.10000000149011612,0],"min":[0,-0.10000000149011612,0],"type":"VEC3"},{"bufferView":129,"componentType":5126,"count":1,"max":[0],"min":[0],"type":"SCALAR"},{"bufferView":130,"componentType":5126,"count":1,"max":[-0.13052618503570557,0,0,0.9914448857307434],"min":[-0.13052618503570557,0,0,0.9914448857307434],"type":"VEC4"},{"bufferView":131,"componentType":5126,"count":1,"max":[0],"min":[0],"type":"SCALAR"},{"bufferView":132,"componentType":5126,"count":1,"max":[0,0.25,0],"min":[0,0.25,0],"type":"VEC3"},{"bufferView":133,"componentType":5126,"count":1,"max":[0],"min":[0],"type":"SCALAR"},{"bufferView":134,"componentType":5126,"count":1,"max":[0,0,0,1],"min":[0,0,0,1],"type":"VEC4"},{"bufferView":135,"componentType":5126,"count":10,"max":[0.5],"min":[0],"type":"SCALAR"},{"bufferView":136,"componentType":5126,"count":10,"max":[0.26484811305999756,0.3782423138618469,-0.47691136598587036,0.817933976650238],"min":[-0.31866198778152466,-0.4550964832305908,-0.5727235078811646,0.6811000108718872],"type":"VEC4"},{"bufferView":137,"componentType":5126,"count":10,"max":[0.5],"min":[0],"type":"SCALAR"},{"bufferView":138,"componentType":5126,"count":10,"max":[0,0.5,0,0.9940563440322876],"min":[0,0.10886687785387039,0,0.8660253882408142],"type":"VEC4"},{"bufferView":139,"componentType":5126,"count":10,"max":[0.5],"min":[0],"type":"SCALAR"},{"bufferView":140,"componentType":5126,"count":10,"max":[0,0,0,1],"min":[0,-0.3420201539993286,0,0.9396926164627075],"type":"VEC4"},{"bufferView":141,"componentType":5126,"count":1,"max":[0],"min":[0],"type":"SCALAR"},{"bufferView":142,"componentType":5126,"count":1,"max":[-0.07486674934625626,0.10692079365253448,0.5686694383621216,0.8121441006660461],"min":[-0.07486674934625626,0.10692079365253448,0.5686694383621216,0.8121441006660461],"type":"VEC4"},{"bufferView":143,"componentType":5126,"count":1,"max":[0],"min":[0],"type":"SCALAR"},{"bufferView":144,"componentType":5126,"count":1,"max":[0,-0.4809887707233429,0,0.8767267465591431],"min":[0,-0.4809887707233429,0,0.8767267465591431],"type":"VEC4"},{"bufferView":145,"componentType":5126,"count":1,"max":[0],"min":[0],"type":"SCALAR"},{"bufferView":146,"componentType":5126,"count":1,"max":[0,0,0,1],"min":[0,0,0,1],"type":"VEC4"},{"bufferView":147,"componentType":5126,"count":1,"max":[0],"min":[0],"type":"SCALAR"},{"bufferView":148,"componentType":5126,"count":1,"max":[-0.02181488461792469,0,0,0.9997619986534119],"min":[-0.02181488461792469,0,0,0.9997619986534119],"type":"VEC4"},{"bufferView":149,"componentType":5126,"count":1,"max":[0],"min":[0],"type":"SCALAR"},{"bufferView":150,"componentType":5126,"count":1,"max":[0.15212339162826538,0,0,0.9883615374565125],"min":[0.15212339162826538,0,0,0.9883615374565125],"type":"VEC4"},{"bufferView":151,"componentType":5126,"count":1,"max":[0],"min":[0],"type":"SCALAR"},{"bufferView":152,"componentType":5126,"count":1,"max":[-0.04258543252944946,-0.19198428094387054,0.0999406948685646,0.9753667712211609],"min":[-0.04258543252944946,-0.19198428094387054,0.0999406948685646,0.9753667712211609],"type":"VEC4"},{"bufferView":153,"componentType":5126,"count":1,"max":[0],"min":[0],"type":"SCALAR"},{"bufferView":154,"componentType":5126,"count":1,"max":[-0.1736481785774231,0,0,0.9848077297210693],"min":[-0.1736481785774231,0,0,0.9848077297210693],"type":"VEC4"},{"bufferView":155,"componentType":5126,"count":1,"max":[0],"min":[0],"type":"SCALAR"},{"bufferView":156,"componentType":5126,"count":1,"max":[0.3186894953250885,0.019856086000800133,-0.12900707125663757,0.9388290047645569],"min":[0.3186894953250885,0.019856086000800133,-0.12900707125663757,0.9388290047645569],"type":"VEC4"},{"bufferView":157,"componentType":5126,"count":1,"max":[0],"min":[0],"type":"SCALAR"},{"bufferView":158,"componentType":5126,"count":1,"max":[0.50257807970047,0.1458347886800766,-0.040086641907691956,0.8511995077133179],"min":[0.50257807970047,0.1458347886800766,-0.040086641907691956,0.8511995077133179],"type":"VEC4"},{"bufferView":159,"componentType":5126,"count":1,"max":[0],"min":[0],"type":"SCALAR"},{"bufferView":160,"componentType":5126,"count":1,"max":[-0.3420201539993286,0,0,0.9396926164627075],"min":[-0.3420201539993286,0,0,0.9396926164627075],"type":"VEC4"},{"bufferView":161,"componentType":5126,"count":1,"max":[0],"min":[0],"type":"SCALAR"},{"bufferView":162,"componentType":5126,"count":1,"max":[-0.04361938685178757,0,0,0.9990482330322266],"min":[-0.04361938685178757,0,0,0.9990482330322266],"type":"VEC4"}],"materials":[{"pbrMetallicRoughness":{"metallicFactor":0,"roughnessFactor":1,"baseColorTexture":{"index":0}},"alphaMode":"MASK","alphaCutoff":0.05}],"textures":[{"sampler":0,"source":0,"name":"small_goblin texture.png"}],"samplers":[{"magFilter":9728,"minFilter":9728,"wrapS":33071,"wrapT":33071}],"images":[{"mimeType":"image/png","name":"small_goblin texture.png","uri":"small_goblin texture.png"}],"meshes":[{"primitives":[{"mode":4,"attributes":{"POSITION":0,"NORMAL":1,"TEXCOORD_0":2,"JOINTS_0":3,"WEIGHTS_0":4},"indices":5,"material":0}]}],"skins":[{"inverseBindMatrices":6,"joints":[22,21,12,4,3,2,1,0,9,8,7,6,5,11,10,16,15,14,13,20,19,18,17],"skeleton":22}],"animations":[{"name":"idle","samplers":[{"input":7,"output":8,"interpolation":"LINEAR"},{"input":9,"output":10,"interpolation":"LINEAR"},{"input":11,"output":12,"interpolation":"LINEAR"},{"input":13,"output":14,"interpolation":"LINEAR"},{"input":15,"output":16,"interpolation":"LINEAR"},{"input":17,"output":18,"interpolation":"LINEAR"},{"input":19,"output":20,"interpolation":"LINEAR"},{"input":21,"output":22,"interpolation":"LINEAR"},{"input":23,"output":24,"interpolation":"LINEAR"},{"input":25,"output":26,"interpolation":"LINEAR"},{"input":27,"output":28,"interpolation":"LINEAR"},{"input":29,"output":30,"interpolation":"LINEAR"},{"input":31,"output":32,"interpolation":"LINEAR"},{"input":33,"output":34,"interpolation":"LINEAR"}],"channels":[{"sampler":0,"target":{"node":22,"path":"translation"}},{"sampler":1,"target":{"node":12,"path":"rotation"}},{"sampler":2,"target":{"node":3,"path":"rotation"}},{"sampler":3,"target":{"node":2,"path":"rotation"}},{"sampler":4,"target":{"node":15,"path":"rotation"}},{"sampler":5,"target":{"node":14,"path":"rotation"}},{"sampler":6,"target":{"node":13,"path":"rotation"}},{"sampler":7,"target":{"node":19,"path":"rotation"}},{"sampler":8,"target":{"node":18,"path":"rotation"}},{"sampler":9,"target":{"node":17,"path":"rotation"}},{"sampler":10,"target":{"node":8,"path":"rotation"}},{"sampler":11,"target":{"node":7,"path":"rotation"}},{"sampler":12,"target":{"node":11,"path":"rotation"}},{"sampler":13,"target":{"node":10,"path":"rotation"}}]},{"name":"move","samplers":[{"input":35,"output":36,"interpolation":"LINEAR"},{"input":37,"output":38,"interpolation":"LINEAR"},{"input":39,"output":40,"interpolation":"LINEAR"},{"input":41,"output":42,"interpolation":"LINEAR"},{"input":43,"output":44,"interpolation":"LINEAR"},{"input":45,"output":46,"interpolation":"LINEAR"},{"input":47,"output":48,"interpolation":"LINEAR"},{"input":49,"output":50,"interpolation":"LINEAR"},{"input":51,"output":52,"interpolation":"LINEAR"},{"input":53,"output":54,"interpolation":"LINEAR"}],"channels":[{"sampler":0,"target":{"node":21,"path":"rotation"}},{"sampler":1,"target":{"node":12,"path":"rotation"}},{"sampler":2,"target":{"node":3,"path":"rotation"}},{"sampler":3,"target":{"node":2,"path":"rotation"}},{"sampler":4,"target":{"node":15,"path":"rotation"}},{"sampler":5,"target":{"node":14,"path":"rotation"}},{"sampler":6,"target":{"node":19,"path":"rotation"}},{"sampler":7,"target":{"node":18,"path":"rotation"}},{"sampler":8,"target":{"node":8,"path":"rotation"}},{"sampler":9,"target":{"node":7,"path":"rotation"}}]},{"name":"attack_stance","samplers":[{"input":55,"output":56,"interpolation":"LINEAR"},{"input":57,"output":58,"interpolation":"LINEAR"},{"input":59,"output":60,"interpolation":"LINEAR"},{"input":61,"output":62,"interpolation":"LINEAR"},{"input":63,"output":64,"interpolation":"LINEAR"},{"input":65,"output":66,"interpolation":"LINEAR"},{"input":67,"output":68,"interpolation":"LINEAR"},{"input":69,"output":70,"interpolation":"LINEAR"},{"input":71,"output":72,"interpolation":"LINEAR"},{"input":73,"output":74,"interpolation":"LINEAR"},{"input":75,"output":76,"interpolation":"LINEAR"},{"input":77,"output":78,"interpolation":"LINEAR"},{"input":79,"output":80,"interpolation":"LINEAR"},{"input":81,"output":82,"interpolation":"LINEAR"},{"input":83,"output":84,"interpolation":"LINEAR"},{"input":85,"output":86,"interpolation":"LINEAR"},{"input":87,"output":88,"interpolation":"LINEAR"},{"input":89,"output":90,"interpolation":"LINEAR"}],"channels":[{"sampler":0,"target":{"node":22,"path":"translation"}},{"sampler":1,"target":{"node":21,"path":"rotation"}},{"sampler":2,"target":{"node":21,"path":"translation"}},{"sampler":3,"target":{"node":12,"path":"rotation"}},{"sampler":4,"target":{"node":3,"path":"rotation"}},{"sampler":5,"target":{"node":2,"path":"rotation"}},{"sampler":6,"target":{"node":1,"path":"rotation"}},{"sampler":7,"target":{"node":8,"path":"rotation"}},{"sampler":8,"target":{"node":7,"path":"rotation"}},{"sampler":9,"target":{"node":6,"path":"rotation"}},{"sampler":10,"target":{"node":11,"path":"rotation"}},{"sampler":11,"target":{"node":10,"path":"rotation"}},{"sampler":12,"target":{"node":15,"path":"rotation"}},{"sampler":13,"target":{"node":14,"path":"rotation"}},{"sampler":14,"target":{"node":13,"path":"rotation"}},{"sampler":15,"target":{"node":19,"path":"rotation"}},{"sampler":16,"target":{"node":18,"path":"rotation"}},{"sampler":17,"target":{"node":17,"path":"rotation"}}]},{"name":"left_stab","samplers":[{"input":91,"output":92,"interpolation":"LINEAR"},{"input":93,"output":94,"interpolation":"LINEAR"},{"input":95,"output":96,"interpolation":"LINEAR"},{"input":97,"output":98,"interpolation":"LINEAR"},{"input":99,"output":100,"interpolation":"LINEAR"},{"input":101,"output":102,"interpolation":"LINEAR"},{"input":103,"output":104,"interpolation":"LINEAR"},{"input":105,"output":106,"interpolation":"LINEAR"},{"input":107,"output":108,"interpolation":"LINEAR"},{"input":109,"output":110,"interpolation":"LINEAR"},{"input":111,"output":112,"interpolation":"LINEAR"},{"input":113,"output":114,"interpolation":"LINEAR"},{"input":115,"output":116,"interpolation":"LINEAR"},{"input":117,"output":118,"interpolation":"LINEAR"},{"input":119,"output":120,"interpolation":"LINEAR"},{"input":121,"output":122,"interpolation":"LINEAR"},{"input":123,"output":124,"interpolation":"LINEAR"},{"input":125,"output":126,"interpolation":"LINEAR"}],"channels":[{"sampler":0,"target":{"node":22,"path":"translation"}},{"sampler":1,"target":{"node":21,"path":"rotation"}},{"sampler":2,"target":{"node":21,"path":"translation"}},{"sampler":3,"target":{"node":12,"path":"rotation"}},{"sampler":4,"target":{"node":3,"path":"rotation"}},{"sampler":5,"target":{"node":2,"path":"rotation"}},{"sampler":6,"target":{"node":1,"path":"rotation"}},{"sampler":7,"target":{"node":8,"path":"rotation"}},{"sampler":8,"target":{"node":7,"path":"rotation"}},{"sampler":9,"target":{"node":6,"path":"rotation"}},{"sampler":10,"target":{"node":11,"path":"rotation"}},{"sampler":11,"target":{"node":10,"path":"rotation"}},{"sampler":12,"target":{"node":15,"path":"rotation"}},{"sampler":13,"target":{"node":14,"path":"rotation"}},{"sampler":14,"target":{"node":13,"path":"rotation"}},{"sampler":15,"target":{"node":19,"path":"rotation"}},{"sampler":16,"target":{"node":18,"path":"rotation"}},{"sampler":17,"target":{"node":17,"path":"rotation"}}]},{"name":"right_stab","samplers":[{"input":127,"output":128,"interpolation":"LINEAR"},{"input":129,"output":130,"interpolation":"LINEAR"},{"input":131,"output":132,"interpolation":"LINEAR"},{"input":133,"output":134,"interpolation":"LINEAR"},{"input":135,"output":136,"interpolation":"LINEAR"},{"input":137,"output":138,"interpolation":"LINEAR"},{"input":139,"output":140,"interpolation":"LINEAR"},{"input":141,"output":142,"interpolation":"LINEAR"},{"input":143,"output":144,"interpolation":"LINEAR"},{"input":145,"output":146,"interpolation":"LINEAR"},{"input":147,"output":148,"interpolation":"LINEAR"},{"input":149,"output":150,"interpolation":"LINEAR"},{"input":151,"output":152,"interpolation":"LINEAR"},{"input":153,"output":154,"interpolation":"LINEAR"},{"input":155,"output":156,"interpolation":"LINEAR"},{"input":157,"output":158,"interpolation":"LINEAR"},{"input":159,"output":160,"interpolation":"LINEAR"},{"input":161,"output":162,"interpolation":"LINEAR"}],"channels":[{"sampler":0,"target":{"node":22,"path":"translation"}},{"sampler":1,"target":{"node":21,"path":"rotation"}},{"sampler":2,"target":{"node":21,"path":"translation"}},{"sampler":3,"target":{"node":12,"path":"rotation"}},{"sampler":4,"target":{"node":3,"path":"rotation"}},{"sampler":5,"target":{"node":2,"path":"rotation"}},{"sampler":6,"target":{"node":1,"path":"rotation"}},{"sampler":7,"target":{"node":8,"path":"rotation"}},{"sampler":8,"target":{"node":7,"path":"rotation"}},{"sampler":9,"target":{"node":6,"path":"rotation"}},{"sampler":10,"target":{"node":11,"path":"rotation"}},{"sampler":11,"target":{"node":10,"path":"rotation"}},{"sampler":12,"target":{"node":15,"path":"rotation"}},{"sampler":13,"target":{"node":14,"path":"rotation"}},{"sampler":14,"target":{"node":13,"path":"rotation"}},{"sampler":15,"target":{"node":19,"path":"rotation"}},{"sampler":16,"target":{"node":18,"path":"rotation"}},{"sampler":17,"target":{"node":17,"path":"rotation"}}]}]}